<svg xmlns="http://www.w3.org/2000/svg" version="1.1" xmlns:xlink="http://www.w3.org/1999/xlink" xmlns:svgjs="http://svgjs.com/svgjs" width="400" height="700" preserveAspectRatio="none" viewBox="0 0 400 700"><g mask="url(&quot;#SvgjsMask1015&quot;)" fill="none"><rect width="400" height="700" x="0" y="0" fill="#0e2a47"></rect><path d="M126.67 100C111.93 55.38 112.26 30.23 134.43 0C148.92 -19.77 167.22 0 200 0C250 0 250 0 300 0C350 0 375 -25 400 0C425 25 400 50 400 100C400 150 400 150 400 200C400 250 400 250 400 300C400 350 400 350 400 400C400 450 400 450 400 500C400 550 400 550 400 600C400 650 425 675 400 700C375 725 350 700 300 700C250 700 250 700 200 700C150 700 150 700 100 700C50 700 29.41 720.59 0 700C-20.59 685.59 -4 664.25 0 630C1.84 614.25 11.69 613.98 11.69 600C11.69 592.27 1 595.1 0 586.57C-4.85 545.1 0 543.29 0 500C0 450 0 450 0 400C0 350 0 350 0 300C0 250 -23.61 211.8 0 200C26.39 186.8 49.58 248.9 100 250C149.58 251.08 150.95 228.25 200 204.35C202.27 203.25 202.63 201.83 202.63 200C202.63 198.91 200.91 199.71 200 198.51C162.93 149.71 144.72 154.63 126.67 100" stroke="rgba(51, 121, 194, 0.52)" stroke-width="2"></path><path d="M300 264.91C274.87 264.91 252.38 279.22 252.38 300C252.38 327.07 273.65 360.61 300 360.61C330.8 360.61 366.67 326.06 366.67 300C366.67 278.21 332.01 264.91 300 264.91" stroke="rgba(51, 121, 194, 0.52)" stroke-width="2"></path><path d="M154.44 100C147.4 53.86 157.05 40.3 175.41 0C179.83 -9.7 187.7 0 200 0C250 0 250 0 300 0C339.83 0 364.95 -22.07 379.66 0C398.28 27.93 359.78 54.43 366.67 100C369.95 121.67 392.96 113.35 400 134.48C409.62 163.35 400 167.24 400 200C400 235.85 419.51 267.59 400 271.7C369.51 278.12 349.15 247.83 300 221.05C283.36 211.98 284.69 209.74 268.42 200C234.69 179.81 228.93 186.57 200 161.19C171.94 136.57 159.7 134.45 154.44 100" stroke="rgba(51, 121, 194, 0.52)" stroke-width="2"></path><path d="M0 300C28.53 296.43 48.26 383.8 100 387.5C148.26 390.95 156.62 310.9 200 314.29C236.62 317.15 225.26 362.36 260 400C275.26 416.54 281.59 422.64 300 422.64C312.7 422.64 310.8 411 322.22 400C360.8 362.84 376.96 326.32 400 326.32C415.85 326.32 400 363.16 400 400C400 450 400 450 400 500C400 550 400 550 400 600C400 650 425 675 400 700C375 725 350 700 300 700C250 700 250 700 200 700C150 700 150 700 100 700C62.5 700 36.84 721.21 25 700C8.92 671.21 51.69 645.39 44.16 600C39.19 570.01 12.75 578.12 0 549.25C-9.33 528.12 0 524.63 0 500C0 450 0 450 0 400C0 350 -21.47 302.68 0 300" stroke="rgba(51, 121, 194, 0.52)" stroke-width="2"></path><path d="M100 412.5C92.23 412.5 82.5 459.44 82.5 500C82.5 510.19 91.71 514 100 514C107.19 514 113.46 509.13 113.46 500C113.46 458.38 107.71 412.5 100 412.5" stroke="rgba(51, 121, 194, 0.52)" stroke-width="2"></path><path d="M182.22 100C182.22 70.84 186.18 66.65 200 38.46C210.69 16.65 210.31 8.05 231.25 0C260.31 -11.18 265.63 0 300 0C318.64 0 333.91 -13.51 337.29 0C346.41 36.49 336.75 51.61 325 100C318.11 128.39 322.61 149.25 300 153.57C260.11 161.19 245.81 144.72 200 123.88C186.92 117.93 182.22 113.55 182.22 100" stroke="rgba(51, 121, 194, 0.52)" stroke-width="2"></path><path d="M350 200C350 188.36 382.26 177.59 400 177.59C407.26 177.59 400 188.8 400 200C400 212.26 407.64 224.53 400 224.53C382.64 224.53 350 211.83 350 200" stroke="rgba(51, 121, 194, 0.52)" stroke-width="2"></path><path d="M0 378.13C6.66 378.13 20.19 385.43 22.58 400C30.19 446.37 29.16 454.6 20 500C17.87 510.57 6.61 511.94 0 511.94C-3.39 511.94 0 505.97 0 500C0 450 0 450 0 400C0 389.07 -4.63 378.13 0 378.13" stroke="rgba(51, 121, 194, 0.52)" stroke-width="2"></path><path d="M368.52 400C383.88 384.7 390.67 370.18 400 370.18C406.41 370.18 400 385.09 400 400C400 450 400 450 400 500C400 515.38 403.99 516.14 400 530.77C390.35 566.14 372.73 565.56 372.73 600C372.73 632.32 390.98 631.21 400 664.29C404.61 681.21 413.16 695.3 400 700C363.16 713.16 350 700 300 700C277.38 700 272.75 710.61 254.76 700C222.75 681.13 234.23 650.31 200 641.03C156.85 629.34 138.15 670.75 100 658.06C76.46 650.23 76.62 627.9 76.62 600C76.62 580.87 86.16 580.3 100 564C128.62 530.3 135.77 535.59 161.54 500C185.77 466.55 170.01 432.47 200 425.93C239.24 417.37 255.55 476.65 300 469.81C339.81 463.68 333.88 434.51 368.52 400" stroke="rgba(51, 121, 194, 0.52)" stroke-width="2"></path></g><defs><mask id="SvgjsMask1015"><rect width="400" height="700" fill="#ffffff"></rect></mask></defs></svg>