<svg xmlns="http://www.w3.org/2000/svg" version="1.1" xmlns:xlink="http://www.w3.org/1999/xlink" xmlns:svgjs="http://svgjs.com/svgjs" width="600" height="900" preserveAspectRatio="none" viewBox="0 0 600 900"><g mask="url(&quot;#SvgjsMask1011&quot;)" fill="none"><rect width="600" height="900" x="0" y="0" fill="#0e2a47"></rect><path d="M285.94 0C310.4 10.49 294.24 64.29 300 64.29C305.68 64.29 285.2 10.12 308.82 0C360.2 -22.02 379.41 0 450 0C525 0 562.5 -37.5 600 0C637.5 37.5 600 75 600 150C600 225 600 225 600 300C600 375 600 375 600 450C600 525 600 525 600 600C600 675 600 675 600 750C600 825 637.5 862.5 600 900C562.5 937.5 525 900 450 900C375 900 375 900 300 900C237.5 900 236.13 905.46 175 900C161.13 898.76 160.65 895.89 150 886.61C74.59 820.89 76.31 818.44 2.88 750C1.31 748.54 0.04 748.94 0 746.81C-1.4 673.94 0 673.4 0 600C0 525 0 525 0 450C0 375 0 375 0 300C0 225 0 225 0 150C0 75 -37.5 37.5 0 0C37.5 -37.5 75 0 150 0C217.97 0 235.4 -21.66 285.94 0" stroke="rgba(51, 121, 194, 0.52)" stroke-width="2"></path><path d="M300 183.33C261.71 186.13 260.38 247.11 260.38 300C260.38 322.38 275.75 332.37 300 333.87C370.56 338.22 376.36 326.47 450 311.69C460.73 309.54 468.75 306.21 468.75 300C468.75 293.44 459.59 292.78 450 286.15C375.21 234.44 356.52 179.2 300 183.33" stroke="rgba(51, 121, 194, 0.52)" stroke-width="2"></path><path d="M150 414.71C136.36 414.71 127.42 429.04 123.91 450C111.91 521.68 108.79 530.3 118.97 600C121.83 619.59 130.21 623.82 150 628.57C220.72 645.53 232.34 653.82 300 643.42C325.28 639.53 335.87 622.07 335.87 600C335.87 576.79 321.25 573.31 300 552.86C243.31 498.31 238 503.42 180 450C163 434.34 164.4 414.71 150 414.71" stroke="rgba(51, 121, 194, 0.52)" stroke-width="2"></path><path d="M22.22 150C22.22 117.02 5.36 115.59 0 79.41C-5.75 40.59 -25.96 13.74 0 0C49.04 -25.96 75 0 150 0C159.38 0 163.69 -7.37 168.75 0C215.18 67.63 247.63 72.94 252.99 150C258.06 222.94 227.74 229.24 189.62 300C176.24 324.83 167.82 318.91 150 341.18C107.8 393.91 92.2 388.79 69.57 450C44.36 518.2 76.44 530.98 54.31 600C41.65 639.49 15.28 667.02 0 667.02C-11.87 667.02 0 633.51 0 600C0 525 0 525 0 450C0 375 0 375 0 300C0 237.76 -8.73 234.5 0 175.53C2.38 159.5 22.22 165.08 22.22 150" stroke="rgba(51, 121, 194, 0.52)" stroke-width="2"></path><path d="M357.27 150C338.46 86.49 350.26 51.91 382.35 0C396.62 -23.09 416.17 0 450 0C525 0 562.5 -37.5 600 0C637.5 37.5 600 75 600 150C600 225 600 225 600 300C600 375 600 375 600 450C600 525 600 525 600 600C600 645.84 627.56 665.83 600 691.67C552.56 736.15 524.1 714.29 450 740.63C442.07 743.45 435.94 745.09 435.94 750C435.94 755.13 444.37 753.93 450 760.71C506.59 828.93 560.38 857.04 560.38 900C560.38 926.68 505.19 900 450 900C375 900 375 900 300 900C300 900 300 900 300 900C225 859.82 220.25 866.47 150 819.64C107.75 791.47 75 783.73 75 750C75 717.96 105.77 699.35 150 688.1C218.27 670.73 237.11 717.21 300 692.76C350.42 673.16 376.63 647.15 376.63 600C376.63 550.41 341.96 546.21 300 499.29C274.89 471.21 242.5 475.51 242.5 450C242.5 423.04 264.49 409.68 300 394.35C368.24 364.88 379.15 387.47 450 360.39C502.59 340.29 546.88 332.1 546.88 300C546.88 266.14 497.2 265.8 450 228.46C402.39 190.8 372.29 200.72 357.27 150" stroke="rgba(51, 121, 194, 0.52)" stroke-width="2"></path><path d="M91.67 150C91.67 110.66 122.73 75 150 75C175.4 75 197.01 111.15 197.01 150C197.01 197.87 175.71 248.44 150 248.44C123.04 248.44 91.67 197.38 91.67 150" stroke="rgba(51, 121, 194, 0.52)" stroke-width="2"></path><path d="M425.45 150C425.45 92.92 430.88 85.16 450 27.27C455.65 10.16 457.87 3.11 475 0C532.87 -10.52 571.59 -34.09 600 0C634.09 40.91 600 75 600 150C600 200 627.81 246.15 600 250C552.81 256.53 523.37 212.8 450 170.77C436.09 162.8 425.45 164.67 425.45 150" stroke="rgba(51, 121, 194, 0.52)" stroke-width="2"></path><path d="M0 255.32C28.58 255.32 81.22 264.4 84 300C88.83 361.74 41.71 372.61 15.22 450C-0.29 495.33 3.83 545.45 0 545.45C-3.78 545.45 0 497.73 0 450C0 375 0 375 0 300C0 277.66 -13.42 255.32 0 255.32" stroke="rgba(51, 121, 194, 0.52)" stroke-width="2"></path><path d="M313.04 450C320.2 408.1 382.21 431.64 450 409.09C525.69 383.91 553.07 341.75 600 354.55C628.07 362.2 600 402.27 600 450C600 511.76 607.73 514.31 600 573.53C597.94 589.31 594.34 591.75 580.43 600C519.34 636.24 504.81 662.5 450 662.5C423.29 662.5 436.45 629.58 417.39 600C367.97 523.33 303.89 503.56 313.04 450" stroke="rgba(51, 121, 194, 0.52)" stroke-width="2"></path><path d="M147.12 750C147.12 748.77 148.14 747.72 150 747.62C224.58 743.77 225.7 741.06 300 742.11C310.07 742.25 318.75 743.98 318.75 750C318.75 758.27 313.16 770.48 300 770.69C228.79 771.82 224.5 762.76 150 752.68C148.06 752.42 147.12 751.3 147.12 750" stroke="rgba(51, 121, 194, 0.52)" stroke-width="2"></path><path d="M396.15 900C396.15 885.57 424.98 850 450 850C471.72 850 489.62 884.58 489.62 900C489.62 909.58 469.81 900 450 900C423.08 900 396.15 910.57 396.15 900" stroke="rgba(51, 121, 194, 0.52)" stroke-width="2"></path></g><defs><mask id="SvgjsMask1011"><rect width="600" height="900" fill="#ffffff"></rect></mask></defs></svg>